# xmcd
#
# Track frame offsets: 
#        150
#        13851
#        16822
#        30554
#        43754
#        56786
#        70184
#        90799
#        111393
#        128058
#        148588
#        159433
#        159887
#        170221
#        176266
#        179177
#        185792
#        191275
#        198944
#        215025
#        234256
#        240183
#        255347
#        275702
#        295148
#
# Disc length: 4202 seconds
#
# Revision: 0
# Processed by: cddbd v1.5.2PL0 Copyright (c) Steve Scherf et al.
# Submitted via: ExactAudioCopy v0.95b3
#
DISCID=5e106819
DTITLE=Elvis Presley  - American Sound - Disc 05 - PC 85
DYEAR=1900
DGENRE=
TTITLE0=Without Love - Take 1 - complete
TTITLE1=Without Love - Take 3 - fase start
TTITLE2=Without Love - Take 4 - complete
TTITLE3=Without Love - Take 5 - master
TTITLE4=Without Love  +string, brass and backup vocals May 7th
TTITLE5=Without Love - 1987 remix
TTITLE6=I'll Hold You In My Heart - Take 1 - 2 false starts and master
TTITLE7=I'll Hold You In My Heart - Quad remix
TTITLE8=I'll Hold You In My Heart - 1980 remix
TTITLE9=I'll Hold You In My Heart - 1987 remix
TTITLE10=I'll Be There - Take 3 - master
TTITLE11=I'll Be There - Take 5 - false start
TTITLE12=I'll Be There - Take 6 - complete
TTITLE13=Suspicious Minds - Take 1 - breakdown
TTITLE14=Suspicious Minds - Take 2 - breakdown
TTITLE15=Suspicious Minds - Take 3 - rehearsal and false start
TTITLE16=Suspicious Minds - Take 4 - breakdown
TTITLE17=Suspicious Minds - Take 5 - breakdown
TTITLE18=Suspicious Minds - Take 6 - 2 false starts and complete
TTITLE19=Suspicious Minds - Take 7 - complete
TTITLE20=Suspicious Minds - Harmony vocal overdub
TTITLE21=Suspicious Minds - Take 8 - master
TTITLE22=Suspicious Minds  +strings March 18th - brass August 7th) Ster
TTITLE22=eo remix
TTITLE23=Suspicious Minds  +alternate brass August 7th) Mono remix
TTITLE24=Suspicious Minds - Alternate remix (no fade)
EXTD=
EXTT0=
EXTT1=
EXTT2=
EXTT3=
EXTT4=
EXTT5=
EXTT6=
EXTT7=
EXTT8=
EXTT9=
EXTT10=
EXTT11=
EXTT12=
EXTT13=
EXTT14=
EXTT15=
EXTT16=
EXTT17=
EXTT18=
EXTT19=
EXTT20=
EXTT21=
EXTT22=
EXTT23=
EXTT24=
PLAYORDER=
